<?xml version="1.0" encoding="utf-8"?>
<!-- Generator: Adobe Illustrator 27.8.0, SVG Export Plug-In . SVG Version: 6.00 Build 0)  -->
<svg version="1.1" id="Livello_1" xmlns="http://www.w3.org/2000/svg" xmlns:xlink="http://www.w3.org/1999/xlink" x="0px" y="0px"
	 viewBox="0 0 358 358" style="enable-background:new 0 0 358 358;" xml:space="preserve">
<path d="M313.2,9H44.8C20.1,9,0,29.1,0,53.8v251.4c0,24.7,20.1,44.8,44.8,44.8h268.5c24.7,0,44.8-20.1,44.8-44.8V53.8
	C358,29.1,337.9,9,313.2,9z M49.3,328.6h-4.6c-12.9,0-23.4-10.5-23.4-23.4V53.8c0-12.9,10.5-23.4,23.4-23.4h4.6
	c-4.2,6.8-6.7,14.8-6.7,23.4v251.4C42.6,313.7,45.1,321.7,49.3,328.6z M92,328.6h-4.6c-12.9,0-23.4-10.5-23.4-23.4V53.8
	c0-12.9,10.5-23.4,23.4-23.4H92c-4.2,6.8-6.7,14.8-6.7,23.4v251.4C85.3,313.7,87.8,321.7,92,328.6z M336.7,305.1
	c0,12.9-10.5,23.4-23.4,23.4H130c-12.9,0-23.4-10.5-23.4-23.4V53.8c0-12.9,10.5-23.4,23.4-23.4h183.2c12.9,0,23.4,10.5,23.4,23.4
	V305.1z"/>
</svg>
